<?xml version="1.0" standalone="no"?>
<!DOCTYPE svg PUBLIC "-//W3C//DTD SVG 20010904//EN"
 "http://www.w3.org/TR/2001/REC-SVG-20010904/DTD/svg10.dtd">
<svg version="1.0" xmlns="http://www.w3.org/2000/svg"
 width="1280.000000pt" height="1051.000000pt" viewBox="0 0 1280.000000 1051.000000"
 preserveAspectRatio="xMidYMid meet">
<metadata>
Created by potrace 1.15, written by Peter Selinger 2001-2017
</metadata>
<g transform="translate(0.000000,1051.000000) scale(0.100000,-0.100000)"
fill="#C75D43" stroke="none">
<path d="M5296 10048 c-3 -255 -11 -895 -16 -1423 -6 -528 -15 -1324 -20
-1770 -6 -445 -10 -876 -10 -957 0 -92 -4 -148 -10 -148 -7 0 -10 728 -10
2165 l0 2165 -510 0 -510 0 0 -572 c-1 -315 -5 -1066 -10 -1668 -5 -602 -10
-1319 -10 -1592 -1 -489 -1 -498 -20 -498 -20 0 -20 16 -20 2215 l0 2215 -494
0 -494 0 -6 -72 c-3 -40 -10 -509 -16 -1043 -6 -533 -15 -1253 -20 -1600 -5
-346 -12 -874 -16 -1172 -6 -506 -8 -543 -24 -543 -16 0 -17 13 -14 153 2 83
9 483 14 887 11 790 23 1583 41 2663 6 374 9 680 7 682 -2 1 -221 4 -488 6
l-485 4 -7 -220 c-3 -121 -11 -438 -17 -705 -6 -267 -16 -667 -21 -890 -11
-464 -26 -1090 -40 -1690 -20 -854 -21 -890 -38 -890 -16 0 -16 71 8 1440 5
300 14 826 20 1170 6 344 15 879 21 1189 5 310 8 565 5 568 -2 2 -205 1 -449
-3 l-446 -7 -5 -71 c-3 -39 -10 -372 -16 -741 -6 -368 -15 -868 -20 -1110 -5
-242 -17 -889 -26 -1437 -11 -587 -22 -998 -27 -998 -6 0 -7 144 -3 363 4 199
11 709 16 1132 6 424 14 1117 20 1540 5 424 12 915 16 1093 l6 322 -430 0
-430 0 -6 -752 c-6 -681 -26 -3449 -26 -3625 l0 -73 -119 0 -119 0 -6 -127
c-3 -71 -9 -203 -12 -295 l-6 -168 6401 0 6401 0 0 295 0 295 -25 0 -25 0 0
2009 0 2008 -92 7 c-50 3 -160 6 -245 6 l-153 0 0 -2015 0 -2015 -22 0 -23 0
4 2053 3 2054 -203 6 c-112 4 -261 7 -331 7 l-128 0 0 -2060 c0 -1824 -2
-2060 -15 -2060 -13 0 -15 266 -15 2338 l0 2339 -262 6 c-145 4 -320 7 -390 7
l-128 0 0 -2345 0 -2345 -25 0 -25 0 0 2350 0 2350 -295 0 -295 0 5 -2132 c3
-1173 7 -2231 10 -2350 4 -180 3 -218 -9 -218 -11 0 -14 248 -20 1513 -3 831
-9 1891 -12 2355 l-7 842 -553 0 -554 0 0 -35 c0 -43 42 -42 -435 -11 -198 13
-363 21 -366 17 -4 -3 -18 -181 -33 -396 -15 -214 -80 -1171 -146 -2125 -148
-2154 -145 -2109 -138 -2115 3 -3 115 -12 249 -20 339 -21 339 -22 22 -23
l-283 -2 0 2362 0 2361 -835 -7 -835 -7 0 26 0 25 -434 0 -434 0 -6 -462z
m3683 -2855 l1 -1443 -140 0 -140 0 0 38 c0 20 50 852 110 1847 61 996 120
1981 133 2190 l22 380 6 -785 c3 -432 7 -1434 8 -2227z m-2795 5 c5 -1031 4
-1448 -3 -1448 -8 0 -11 422 -11 1452 0 798 2 1449 4 1447 2 -2 7 -655 10
-1451z"/>
<path d="M9349 5063 c0 -5 -1 -989 -1 -2188 l0 -2180 -84 1995 c-47 1097 -86
1995 -87 1996 -3 3 -719 -55 -727 -58 -3 -2 11 -298 31 -658 21 -360 37 -684
37 -720 0 -36 -15 180 -33 480 -48 793 -56 924 -58 925 -5 3 -553 -28 -556
-31 -2 -2 4 -142 13 -311 9 -169 25 -472 36 -673 17 -317 24 -529 14 -435 -2
17 -19 323 -39 680 -19 358 -37 678 -41 712 l-5 61 -172 -5 c-95 -3 -174 -7
-176 -9 -2 -2 2 -106 8 -231 20 -404 51 -1003 61 -1193 43 -819 60 -1208 57
-1243 -3 -37 -4 -36 -5 13 -2 30 -16 300 -32 600 -16 300 -48 907 -71 1350
-23 443 -45 808 -48 812 -10 12 -335 -22 -343 -35 -4 -7 -8 9 -8 36 0 46 -1
47 -30 47 -38 0 -474 -40 -478 -44 -1 -2 4 -133 13 -292 8 -159 24 -464 35
-679 11 -214 29 -569 40 -787 11 -219 29 -577 40 -795 23 -450 54 -1050 71
-1380 6 -122 9 -228 6 -235 -7 -21 -16 110 -37 542 -11 223 -29 581 -40 795
-11 215 -29 570 -40 790 -11 220 -29 573 -40 785 -11 212 -29 579 -40 815 -11
237 -23 450 -26 473 l-6 44 -181 -6 c-100 -4 -233 -9 -295 -12 l-113 -6 7 -84
c6 -78 5 -84 -12 -84 -11 0 -179 -9 -374 -20 -195 -11 -369 -20 -386 -20 l-32
0 -7 126 -7 126 -77 -6 c-42 -3 -164 -11 -271 -17 -107 -6 -196 -12 -198 -14
-2 -1 44 -666 102 -1476 59 -811 106 -1487 105 -1504 -1 -31 -34 355 -94 1115
-99 1260 -146 1844 -148 1845 -1 1 -168 -9 -372 -21 -203 -13 -394 -23 -422
-23 l-53 -1 0 36 0 37 -47 -6 c-103 -13 -893 -70 -898 -65 -3 3 -8 35 -12 72
l-6 67 -66 -6 c-36 -3 -163 -12 -281 -20 -118 -8 -241 -18 -272 -21 -53 -5
-57 -4 -60 17 -4 27 14 27 -353 4 -126 -8 -238 -15 -247 -15 -14 0 -18 -8 -18
-36 l0 -35 -682 3 -683 3 -3 -2102 -2 -2103 -54 0 -54 0 -6 -127 c-3 -71 -9
-201 -12 -291 l-6 -162 6401 0 6401 0 0 290 0 290 -200 0 -200 0 0 2020 0
2020 -376 0 -376 0 6 -507 c11 -852 28 -3364 23 -3369 -2 -2 -7 220 -11 493
-3 274 -11 766 -16 1093 -5 327 -14 890 -20 1250 -5 360 -12 787 -16 948 l-6
292 -449 0 -449 0 0 50 0 50 -100 0 -100 0 0 -2171 c0 -1732 -3 -2170 -12
-2167 -10 4 -15 466 -21 2238 -4 1229 -9 2235 -10 2236 -8 6 -1117 13 -1118 7z
m-2212 -485 c-2 -18 -4 -4 -4 32 0 36 2 50 4 33 2 -18 2 -48 0 -65z m-5606
-240 c10 -156 37 -560 59 -898 22 -338 49 -748 60 -910 11 -162 42 -639 70
-1060 27 -421 52 -793 55 -828 l6 -63 -138 3 -138 3 -3 2024 c-1 1113 1 2022
4 2018 3 -3 14 -133 25 -289z m9214 -1663 c8 -627 18 -1355 22 -1617 6 -427 5
-478 -9 -478 -18 0 -24 328 -33 1845 -3 506 -7 1210 -9 1565 -4 599 -4 616 4
235 5 -225 16 -923 25 -1550z m-3598 1748 c-2 -21 -4 -6 -4 32 0 39 2 55 4 38
2 -18 2 -50 0 -70z m10 -155 c-2 -18 -4 -4 -4 32 0 36 2 50 4 33 2 -18 2 -48
0 -65z m10 -160 c-2 -18 -4 -4 -4 32 0 36 2 50 4 33 2 -18 2 -48 0 -65z m10
-160 c-2 -18 -4 -4 -4 32 0 36 2 50 4 33 2 -18 2 -48 0 -65z m10 -160 c-2 -18
-4 -4 -4 32 0 36 2 50 4 33 2 -18 2 -48 0 -65z m-4300 40 c-3 -7 -5 -2 -5 12
0 14 2 19 5 13 2 -7 2 -19 0 -25z m10 -155 c-3 -10 -5 -2 -5 17 0 19 2 27 5
18 2 -10 2 -26 0 -35z m4300 -45 c-2 -18 -4 -4 -4 32 0 36 2 50 4 33 2 -18 2
-48 0 -65z m-4290 -85 c-2 -16 -4 -3 -4 27 0 30 2 43 4 28 2 -16 2 -40 0 -55z
m4300 -75 c-2 -18 -4 -4 -4 32 0 36 2 50 4 33 2 -18 2 -48 0 -65z m-4290 -40
c-2 -18 -4 -6 -4 27 0 33 2 48 4 33 2 -15 2 -42 0 -60z m4300 -120 c-2 -18 -4
-4 -4 32 0 36 2 50 4 33 2 -18 2 -48 0 -65z m-4267 -198 c11 -135 63 -747 115
-1362 52 -614 95 -1128 95 -1142 l0 -26 -277 0 c-152 0 -274 2 -272 4 2 2 120
14 262 27 246 22 257 24 257 44 0 12 -25 333 -55 715 -30 382 -68 868 -85
1080 -17 212 -39 495 -50 630 -11 135 -19 261 -19 280 2 53 7 17 29 -250z
m947 198 c-3 -8 -6 -5 -6 6 -1 11 2 17 5 13 3 -3 4 -12 1 -19z m10 -95 c-3
-10 -5 -4 -5 12 0 17 2 24 5 18 2 -7 2 -21 0 -30z m3320 -55 c-2 -18 -4 -4 -4
32 0 36 2 50 4 33 2 -18 2 -48 0 -65z m1300 -111 c-2 -23 -3 -1 -3 48 0 50 1
68 3 42 2 -26 2 -67 0 -90z m-580 -9 c-2 -24 -4 -5 -4 42 0 47 2 66 4 43 2
-24 2 -62 0 -85z m-4030 50 c-2 -13 -4 -3 -4 22 0 25 2 35 4 23 2 -13 2 -33 0
-45z m3320 -90 c-2 -18 -4 -4 -4 32 0 36 2 50 4 33 2 -18 2 -48 0 -65z m-3237
-698 c16 -168 61 -622 100 -1009 38 -388 68 -706 66 -708 -1 -2 -207 -2 -457
-1 l-454 3 430 44 c237 24 434 47 438 51 5 4 -39 531 -97 1171 -58 640 -106
1175 -105 1189 1 26 27 -212 79 -740z m4537 588 c-2 -24 -4 -7 -4 37 0 44 2
63 4 43 2 -21 2 -57 0 -80z m-580 -30 c-2 -24 -4 -7 -4 37 0 44 2 63 4 43 2
-21 2 -57 0 -80z m-710 -20 c-2 -18 -4 -4 -4 32 0 36 2 50 4 33 2 -18 2 -48 0
-65z m-1130 -40 c-3 -8 -6 -5 -6 6 -1 11 2 17 5 13 3 -3 4 -12 1 -19z m2430
-85 c-2 -21 -4 -6 -4 32 0 39 2 55 4 38 2 -18 2 -50 0 -70z m-1290 -35 c-2
-18 -4 -4 -4 32 0 36 2 50 4 33 2 -18 2 -48 0 -65z m710 15 c-2 -16 -4 -3 -4
27 0 30 2 43 4 28 2 -16 2 -40 0 -55z m-1840 -35 c-2 -13 -4 -5 -4 17 -1 22 1
32 4 23 2 -10 2 -28 0 -40z m2430 -120 c-2 -18 -4 -6 -4 27 0 33 2 48 4 33 2
-15 2 -42 0 -60z m-1290 -20 c-2 -18 -4 -4 -4 32 0 36 2 50 4 33 2 -18 2 -48
0 -65z m710 -30 c-2 -13 -4 -5 -4 17 -1 22 1 32 4 23 2 -10 2 -28 0 -40z
m-1840 -50 c-2 -18 -4 -6 -4 27 0 33 2 48 4 33 2 -15 2 -42 0 -60z m1140 -80
c-2 -18 -4 -4 -4 32 0 36 2 50 4 33 2 -18 2 -48 0 -65z m1290 25 c-2 -16 -4
-5 -4 22 0 28 2 40 4 28 2 -13 2 -35 0 -50z m-580 -25 c-3 -7 -5 -2 -5 12 0
14 2 19 5 13 2 -7 2 -19 0 -25z m-1840 -100 c-2 -24 -4 -7 -4 37 0 44 2 63 4
43 2 -21 2 -57 0 -80z m1140 -50 c-2 -18 -4 -4 -4 32 0 36 2 50 4 33 2 -18 2
-48 0 -65z m1290 -25 c-3 -10 -5 -2 -5 17 0 19 2 27 5 18 2 -10 2 -26 0 -35z
m-6280 5 c-3 -8 -6 -5 -6 6 -1 11 2 17 5 13 3 -3 4 -12 1 -19z m3908 -825 c25
-420 45 -767 45 -773 0 -6 -79 -9 -222 -8 l-223 2 150 6 c83 4 179 8 214 9
l64 1 -7 128 c-6 124 -32 587 -61 1126 -8 148 -14 290 -13 315 l1 46 4 -45 c2
-25 24 -388 48 -807z m1092 685 c-2 -18 -4 -4 -4 32 0 36 2 50 4 33 2 -18 2
-48 0 -65z m-4990 25 c-3 -10 -5 -4 -5 12 0 17 2 24 5 18 2 -7 2 -21 0 -30z
m6280 -15 c-3 -7 -5 -2 -5 12 0 14 2 19 5 13 2 -7 2 -19 0 -25z m-1280 -170
c-2 -18 -4 -4 -4 32 0 36 2 50 4 33 2 -18 2 -48 0 -65z m-4990 -5 c-3 -10 -5
-2 -5 17 0 19 2 27 5 18 2 -10 2 -26 0 -35z m5320 -90 c-2 -27 -3 -5 -3 47 0
52 1 74 3 48 2 -27 2 -69 0 -95z m-320 -65 c-2 -18 -4 -4 -4 32 0 36 2 50 4
33 2 -18 2 -48 0 -65z m-4990 20 c-2 -13 -4 -3 -4 22 0 25 2 35 4 23 2 -13 2
-33 0 -45z m2530 -30 c-2 -18 -4 -6 -4 27 0 33 2 48 4 33 2 -15 2 -42 0 -60z
m2790 -121 c-2 -23 -3 -1 -3 48 0 50 1 68 3 42 2 -26 2 -67 0 -90z m-5310 -14
c-2 -16 -4 -3 -4 27 0 30 2 43 4 28 2 -16 2 -40 0 -55z m4990 -15 c-2 -18 -4
-4 -4 32 0 36 2 50 4 33 2 -18 2 -48 0 -65z m-2460 45 c-3 -10 -5 -4 -5 12 0
17 2 24 5 18 2 -7 2 -21 0 -30z m2790 -195 c-2 -24 -4 -5 -4 42 0 47 2 66 4
43 2 -24 2 -62 0 -85z m-5310 10 c-2 -18 -4 -4 -4 32 0 36 2 50 4 33 2 -18 2
-48 0 -65z m4990 -20 c-2 -18 -4 -4 -4 32 0 36 2 50 4 33 2 -18 2 -48 0 -65z
m-4980 -125 c-2 -21 -4 -6 -4 32 0 39 2 55 4 38 2 -18 2 -50 0 -70z m4990 -25
c-2 -18 -4 -6 -4 27 0 33 2 48 4 33 2 -15 2 -42 0 -60z m320 -20 c-2 -18 -4
-4 -4 32 0 36 2 50 4 33 2 -18 2 -48 0 -65z m-5300 -115 c-2 -21 -4 -4 -4 37
0 41 2 58 4 38 2 -21 2 -55 0 -75z m4990 -25 c-2 -18 -4 -6 -4 27 0 33 2 48 4
33 2 -15 2 -42 0 -60z m320 -65 c-2 -16 -4 -5 -4 22 0 28 2 40 4 28 2 -13 2
-35 0 -50z m-5300 -60 c-2 -21 -4 -4 -4 37 0 41 2 58 4 38 2 -21 2 -55 0 -75z
m4990 -35 c-2 -18 -4 -4 -4 32 0 36 2 50 4 33 2 -18 2 -48 0 -65z m-4963 -280
l6 -78 -297 1 c-164 1 -289 3 -278 5 11 2 112 10 225 19 113 8 234 18 269 21
l63 7 -5 151 c-6 154 -3 136 17 -126z m5283 225 c-3 -10 -5 -2 -5 17 0 19 2
27 5 18 2 -10 2 -26 0 -35z m-310 -105 c-2 -18 -4 -4 -4 32 0 36 2 50 4 33 2
-18 2 -48 0 -65z m10 -160 c-2 -18 -4 -4 -4 32 0 36 2 50 4 33 2 -18 2 -48 0
-65z m-2447 -13 l0 -25 -257 2 c-142 1 -242 3 -223 5 124 14 402 41 438 42 39
1 42 -1 42 -24z m550 -5 c0 -19 -6 -20 -202 -18 -112 1 -187 3 -168 5 49 6
320 30 348 32 16 1 22 -5 22 -19z m2210 -10 c0 -6 -35 -9 -87 -8 l-88 2 70 6
c39 4 78 7 88 8 9 1 17 -2 17 -8z m3980 0 c0 -6 -101 -9 -287 -8 l-288 3 285
5 c157 3 286 6 288 8 1 1 2 -2 2 -8z"/>
</g>
</svg>
